<?xml version="1.0" standalone="no"?>
<!DOCTYPE svg PUBLIC "-//W3C//DTD SVG 20010904//EN"
 "http://www.w3.org/TR/2001/REC-SVG-20010904/DTD/svg10.dtd">
<svg version="1.0" xmlns="http://www.w3.org/2000/svg"
 width="512.000000pt" height="512.000000pt" viewBox="0 0 512.000000 512.000000"
 preserveAspectRatio="xMidYMid meet">
<metadata>
Created by potrace 1.14, written by Peter Selinger 2001-2017
</metadata>
<g transform="translate(0.000000,512.000000) scale(0.100000,-0.100000)"
fill="#000000" stroke="none">
<path d="M1660 5104 c-85 -23 -229 -98 -300 -157 -77 -63 -119 -115 -134 -167
-10 -33 -27 -49 -121 -115 -102 -72 -212 -158 -226 -178 -4 -5 -74 -9 -155 -9
-193 0 -241 -15 -282 -93 -13 -24 -16 -68 -17 -222 l-2 -193 -30 -47 c-83
-128 -191 -352 -246 -508 -29 -80 -74 -237 -81 -278 -3 -15 -7 -35 -10 -45 -3
-9 -7 -34 -11 -56 -3 -21 -7 -41 -9 -45 -4 -6 -12 -72 -26 -201 -8 -85 -5
-454 4 -515 4 -22 13 -80 21 -130 29 -174 78 -357 142 -520 36 -90 123 -272
159 -332 10 -17 34 -57 53 -90 114 -197 346 -461 551 -626 239 -193 534 -356
810 -447 151 -50 339 -94 453 -105 37 -3 90 -10 117 -14 50 -8 473 -6 520 3
14 2 45 7 70 10 25 4 92 16 150 27 58 12 115 23 128 25 38 7 320 103 370 125
169 76 358 183 477 269 39 28 86 62 106 75 28 20 241 87 349 110 105 22 155
52 185 113 19 37 21 51 13 100 -5 31 -17 84 -26 117 -10 33 -18 67 -17 75 0 8
26 54 58 102 185 279 328 646 383 978 38 235 40 573 5 805 -82 539 -335 1035
-728 1430 -77 77 -163 154 -207 185 -12 8 -30 23 -41 33 -37 34 -239 164 -335
217 -81 43 -131 67 -275 130 -115 50 -369 120 -531 146 -20 3 -46 7 -58 10
-149 29 -557 25 -741 -6 -33 -6 -76 -13 -95 -16 -19 -3 -77 -16 -127 -29 l-93
-23 0 27 c0 14 -4 31 -8 37 -22 34 -106 42 -192 18z"/>
</g>
</svg>
